<?xml version="1.0" standalone="no"?>
<!DOCTYPE svg PUBLIC "-//W3C//DTD SVG 20010904//EN"
 "http://www.w3.org/TR/2001/REC-SVG-20010904/DTD/svg10.dtd">
<svg version="1.0" xmlns="http://www.w3.org/2000/svg"
 width="128.000000pt" height="128.000000pt" viewBox="0 0 128.000000 128.000000"
 preserveAspectRatio="xMidYMid meet">
<metadata>
Created by potrace 1.10, written by Peter Selinger 2001-2011
</metadata>
<g transform="translate(0.000000,128.000000) scale(0.100000,-0.100000)"
fill="#000000" stroke="none">
<path d="M466 1255 c-172 -48 -330 -183 -406 -350 -35 -76 -57 -182 -42 -197
8 -8 13 -3 17 18 39 196 148 354 304 441 57 32 135 60 214 77 15 4 27 11 27
16 0 14 -55 11 -114 -5z"/>
<path d="M700 1262 c0 -7 12 -14 28 -18 145 -31 254 -87 342 -174 87 -88 143
-197 174 -342 11 -49 29 -33 23 20 -25 208 -200 419 -412 493 -72 25 -155 36
-155 21z"/>
<path d="M473 1060 c-37 -15 -43 -42 -43 -199 l0 -151 -40 0 c-37 0 -40 2 -40
28 0 32 -25 72 -44 72 -8 0 -19 7 -26 15 -15 18 -120 21 -138 3 -17 -17 -15
-44 4 -62 21 -21 102 -21 133 0 12 9 26 12 30 8 4 -5 25 -101 46 -214 27 -147
43 -211 56 -226 16 -17 17 -25 7 -51 -27 -71 68 -142 130 -96 36 27 49 65 35
103 l-11 30 79 0 79 0 -11 -27 c-14 -37 -2 -79 28 -103 72 -57 176 30 133 111
-9 16 -7 19 15 19 15 0 25 6 25 15 0 12 -37 15 -247 17 -186 2 -247 6 -251 16
-3 9 52 12 251 12 203 0 257 3 266 14 6 7 29 71 50 142 47 154 44 167 -35 172
l-49 3 3 159 c2 103 -1 166 -8 179 -10 20 -19 21 -208 20 -108 0 -207 -4 -219
-9z m407 -185 l0 -165 -180 0 -180 0 0 165 0 165 180 0 180 0 0 -165z m-390
-5 c0 -136 -2 -160 -15 -160 -13 0 -15 24 -15 153 0 85 3 157 7 160 19 20 23
-7 23 -153z m-230 -76 c0 -12 -10 -14 -47 -12 -66 4 -70 28 -4 28 39 0 51 -4
51 -16z m220 -123 c0 -5 3 -23 6 -40 l7 -31 -57 0 c-37 0 -58 4 -60 13 -3 6
-7 24 -10 40 l-6 27 60 0 c33 0 60 -4 60 -9z m190 -31 l0 -40 -74 0 -74 0 -10
40 -10 40 84 0 84 0 0 -40z m184 13 c-3 -16 -7 -34 -10 -40 -2 -9 -26 -13 -74
-13 l-70 0 0 40 0 40 80 0 80 0 -6 -27z m138 21 c3 -3 1 -21 -5 -40 -10 -33
-12 -34 -64 -34 -57 0 -58 1 -37 68 3 12 95 18 106 6z m-492 -113 c0 -9 3 -26
6 -38 6 -22 4 -23 -55 -23 -58 0 -61 1 -61 24 0 13 -2 31 -5 39 -5 11 7 14 55
14 48 0 60 -3 60 -16z m170 -23 l0 -38 -64 0 c-58 0 -64 2 -70 23 -13 50 -10
52 64 52 l70 0 0 -37z m164 13 c-11 -51 -11 -51 -76 -51 l-64 0 4 38 4 37 69
1 c68 0 68 0 63 -25z m131 11 c-3 -8 -8 -25 -11 -38 -5 -21 -12 -24 -55 -24
-53 0 -53 1 -34 66 1 5 26 10 54 10 40 0 50 -3 46 -14z m-445 -106 c0 -8 3
-21 6 -30 5 -14 -3 -16 -55 -16 -46 0 -61 3 -61 14 0 8 -3 21 -6 30 -5 14 3
16 55 16 46 0 61 -3 61 -14z m150 -16 c0 -30 -1 -30 -54 -30 -40 0 -55 4 -60
16 -15 38 -8 44 54 44 60 0 60 0 60 -30z m142 0 c-4 -29 -6 -30 -61 -30 -56 0
-56 0 -56 30 l0 30 61 0 61 0 -5 -30z m119 3 c-6 -25 -13 -28 -53 -31 -45 -3
-45 -3 -40 28 4 29 6 30 52 30 48 0 48 0 41 -27z m-389 -140 c38 -35 9 -103
-44 -103 -24 0 -58 35 -58 60 0 26 34 60 62 60 12 0 30 -7 40 -17z m300 0 c24
-21 23 -58 -2 -83 -25 -25 -55 -25 -80 0 -11 11 -20 29 -20 40 0 26 34 60 62
60 12 0 30 -7 40 -17z"/>
<path d="M572 968 c-14 -14 -16 -136 -4 -156 7 -9 40 -12 133 -10 l124 3 3 79
c2 57 -1 82 -10 87 -21 14 -232 11 -246 -3z m228 -78 l0 -60 -105 0 -105 0 0
60 0 60 105 0 105 0 0 -60z"/>
<path d="M1244 553 c-59 -276 -235 -458 -496 -514 -64 -14 -64 -34 0 -25 216
29 418 198 493 411 25 72 36 155 21 155 -7 0 -14 -12 -18 -27z"/>
<path d="M15 524 c37 -252 264 -476 518 -510 51 -7 69 11 20 21 -119 24 -253
89 -331 159 -76 69 -163 229 -181 330 -3 22 -12 41 -20 44 -11 4 -12 -5 -6
-44z"/>
</g>
</svg>
